<svg xmlns="http://www.w3.org/2000/svg" xmlns:xlink="http://www.w3.org/1999/xlink" width="114" height="99" viewBox="0 0 114 99">
  <defs>
    <clipPath id="clip-path">
      <path id="Path_27" data-name="Path 27" d="M0,0H114V99H0Z" transform="translate(4368 1381)" fill="#fff"/>
    </clipPath>
  </defs>
  <g id="Group_9" data-name="Group 9" transform="translate(-4368 -1381)">
    <g id="Mask_Group_2" data-name="Mask Group 2" clip-path="url(#clip-path)">
      <g id="card" transform="translate(4380.237 1400.832)">
        <path id="Path_1" data-name="Path 1" d="M78.782.168H9.835A9.085,9.085,0,0,0,.763,9.24V49.157a9.085,9.085,0,0,0,9.072,9.072H78.782a9.085,9.085,0,0,0,9.072-9.072V9.24A9.085,9.085,0,0,0,78.782.168Zm5.443,48.989A5.45,5.45,0,0,1,78.782,54.6H9.835a5.45,5.45,0,0,1-5.443-5.443V9.24A5.45,5.45,0,0,1,9.835,3.8H78.782A5.45,5.45,0,0,1,84.225,9.24Z" fill="#c30078" fill-rule="evenodd"/>
        <path id="Path_2" data-name="Path 2" d="M86.04,11.054H2.577A1.816,1.816,0,0,0,.763,12.87V23.756a1.816,1.816,0,0,0,1.814,1.815H86.04a1.815,1.815,0,0,0,1.814-1.815V12.87a1.816,1.816,0,0,0-1.814-1.815ZM4.392,21.941H84.225V14.683H4.392ZM35.236,36.456H13.464a1.816,1.816,0,0,0,0,3.629H35.236a1.815,1.815,0,0,0,0-3.629Zm0,7.258H13.464a1.816,1.816,0,0,0,0,3.628H35.236a1.815,1.815,0,0,0,0-3.628ZM71.524,32.827H67.9a5.45,5.45,0,0,0-5.444,5.443V41.9A5.45,5.45,0,0,0,67.9,47.342h3.628A5.45,5.45,0,0,0,76.968,41.9V38.27A5.451,5.451,0,0,0,71.524,32.827ZM73.34,41.9a1.815,1.815,0,0,1-1.815,1.815H67.9A1.815,1.815,0,0,1,66.082,41.9V38.27A1.816,1.816,0,0,1,67.9,36.456h3.628A1.816,1.816,0,0,1,73.34,38.27Z" fill="#c30078" fill-rule="evenodd"/>
      </g>
    </g>
  </g>
</svg>
