<svg xmlns="http://www.w3.org/2000/svg" width="88" height="59" viewBox="0 0 88 59">
    <g fill="#C30078" fill-rule="evenodd">
        <path d="M78.782.168H9.835C4.835.168.763 4.24.763 9.24v39.917c0 5 4.072 9.072 9.072 9.072h68.947c5 0 9.072-4.072 9.072-9.072V9.24c0-5-4.072-9.072-9.072-9.072zm5.443 48.989c0 3-2.442 5.443-5.443 5.443H9.835a5.45 5.45 0 0 1-5.443-5.443V9.24c0-3 2.441-5.443 5.443-5.443h68.947c3 0 5.443 2.442 5.443 5.443v39.917z"/>
        <path d="M86.04 11.054H2.577A1.816 1.816 0 0 0 .763 12.87v10.886c0 1.001.813 1.815 1.814 1.815H86.04a1.815 1.815 0 0 0 1.814-1.815V12.87a1.816 1.816 0 0 0-1.814-1.815zM4.392 21.941h79.833v-7.258H4.392v7.258zM35.236 36.456H13.464a1.816 1.816 0 0 0 0 3.629h21.772a1.815 1.815 0 0 0 0-3.629zM35.236 43.714H13.464a1.816 1.816 0 0 0 0 3.628h21.772a1.815 1.815 0 0 0 0-3.628zM71.524 32.827h-3.628a5.45 5.45 0 0 0-5.444 5.443v3.63c0 3 2.443 5.442 5.444 5.442h3.628c3.001 0 5.444-2.442 5.444-5.443V38.27c0-3-2.443-5.443-5.444-5.443zM73.34 41.9a1.815 1.815 0 0 1-1.815 1.815h-3.628a1.815 1.815 0 0 1-1.815-1.815V38.27c0-1 .813-1.814 1.815-1.814h3.628c1.001 0 1.815.813 1.815 1.814v3.63z"/>
    </g>
</svg>
