<svg xmlns="http://www.w3.org/2000/svg" width="300" height="302" viewBox="0 0 300 302">
    <g fill="none" fill-rule="evenodd">
        <path fill="#0096FF" d="M.73 51.87c.022 27.893 22.651 50.522 50.545 50.545 27.892.021 50.487-22.574 50.466-50.466-.023-27.894-22.652-50.523-50.544-50.544C23.304 1.383.709 23.978.73 51.87m50.49-17.638c9.762.008 17.683 7.928 17.69 17.69.008 9.763-7.9 17.67-17.663 17.663-9.762-.007-17.682-7.928-17.69-17.69-.007-9.762 7.901-17.67 17.663-17.663"/>
        <path fill="#FFC800" d="M51.196 1.405a50.713 50.713 0 0 0-9.011.81 83.074 83.074 0 0 0 21.54 37.205 83.082 83.082 0 0 0 37.205 21.54c.524-2.925.813-5.933.81-9.012-.021-27.893-22.65-50.522-50.544-50.543"/>
        <path fill="#82B331" d="M211.982 16.648c-19.006 20.414-17.89 52.397 2.495 71.436 20.385 19.039 52.32 17.923 71.326-2.49 19.007-20.416 17.89-52.399-2.494-71.437-20.385-19.038-52.32-17.923-71.327 2.49m48.956 21.536c7.134 6.663 7.525 17.858.873 25.002-6.652 7.145-17.83 7.535-24.964.872-7.135-6.663-7.526-17.858-.873-25.002 6.652-7.145 17.83-7.535 24.964-.872"/>
        <path fill="#C30078" d="M283.308 14.157a50.713 50.713 0 0 0-7.143-5.553 83.074 83.074 0 0 0-9.62 41.9 83.082 83.082 0 0 0 12.52 41.127 50.723 50.723 0 0 0 6.738-6.039c19.008-20.414 17.89-52.397-2.495-71.435"/>
        <g>
            <path fill="#6E006D" d="M150.507 101.232c-27.889-.465-50.91 21.765-51.419 49.654-.508 27.888 21.69 50.874 49.578 51.34 27.89.464 50.91-21.767 51.418-49.655.508-27.888-21.689-50.874-49.577-51.34m16.753 50.792c-.178 9.76-8.235 17.541-17.996 17.378-9.76-.163-17.53-8.208-17.352-17.968.178-9.76 8.236-17.542 17.996-17.38 9.761.164 17.53 8.209 17.352 17.97"/>
            <path fill="#FFC800" d="M200.084 152.57a50.713 50.713 0 0 0-.653-9.024 83.074 83.074 0 0 0-37.575 20.888 83.082 83.082 0 0 0-22.186 36.823c2.916.575 5.918.916 8.996.967 27.89.466 50.91-21.765 51.418-49.653"/>
        </g>
        <g>
            <path fill="#C30078" d="M249.37 301.77c27.893-.022 50.522-22.651 50.545-50.545.021-27.892-22.574-50.487-50.466-50.466-27.894.023-50.523 22.652-50.544 50.544-.022 27.893 22.573 50.488 50.466 50.466m-17.638-50.49c.008-9.762 7.928-17.683 17.69-17.69 9.763-.008 17.67 7.9 17.663 17.663-.007 9.762-7.928 17.682-17.69 17.69-9.762.007-17.67-7.901-17.663-17.663"/>
            <path fill="#FFC800" d="M198.905 251.304a50.713 50.713 0 0 0 .81 9.011 83.074 83.074 0 0 0 37.205-21.54 83.082 83.082 0 0 0 21.54-37.205 50.723 50.723 0 0 0-9.012-.81c-27.893.021-50.522 22.65-50.543 50.544"/>
        </g>
    </g>
</svg>
