<svg xmlns="http://www.w3.org/2000/svg" width="86" height="58" viewBox="0 0 86 58">
    <g fill="#82B331" fill-rule="evenodd">
        <path d="M82.685 49.896a4.277 4.277 0 0 1-4.277 4.277H7.128a4.277 4.277 0 0 1-4.277-4.277V7.128a4.277 4.277 0 0 1 4.277-4.277h71.28a4.277 4.277 0 0 1 4.277 4.277v42.768zM78.408 0H7.128A7.137 7.137 0 0 0 0 7.128v42.768a7.137 7.137 0 0 0 7.128 7.128h71.28a7.137 7.137 0 0 0 7.128-7.128V7.128A7.137 7.137 0 0 0 78.408 0z"/>
        <path d="M79.63 6.394a1.426 1.426 0 0 0-1.956-.488L46.434 24.65a7.107 7.107 0 0 1-7.333 0L7.862 5.906A1.426 1.426 0 0 0 6.394 8.35l31.242 18.744a9.96 9.96 0 0 0 10.264 0L79.142 8.35a1.426 1.426 0 0 0 .488-1.956M6.128 11.405c-.787 0-1.426.638-1.426 1.425v37.066a1.426 1.426 0 0 0 2.852 0V12.83c0-.787-.639-1.425-1.426-1.425M79.408 11.405c-.787 0-1.426.638-1.426 1.425v37.066a1.426 1.426 0 0 0 2.852 0V12.83c0-.787-.639-1.425-1.426-1.425"/>
    </g>
</svg>
