<svg xmlns="http://www.w3.org/2000/svg" width="279.104" height="27.272" viewBox="0 0 279.104 27.272">
  <g id="logo-orginal" transform="translate(-0.344 -0.904)">
    <path id="Path_2" data-name="Path 2" d="M165.936,1.408c-1.512,0-1.876.336-1.876,1.624v3c0,.924.5,1.12,1.932,1.12,1.512,0,1.932-.2,1.932-1.12V4.6h4.228V18.432H170c-.728,0-.924.28-.924,1.568s.2,1.568.924,1.568h8.484c.784,0,.924-.28.924-1.568s-.14-1.568-.924-1.568H176.3V4.6h4.228V6.028c0,.924.42,1.12,1.932,1.12,1.456,0,1.932-.2,1.932-1.12v-3c0-1.288-.336-1.624-1.848-1.624h-16.6Zm20.916,6.44c-1.176,0-1.512.5-1.512,1.876,0,.9.2,1.26.952,1.26h.532c.364,0,.532.084.532.532V15.66c0,3.752,1.456,6.244,5.712,6.244,2.38,0,3.724-.7,4.312-2.016h.5c.42,1.232,1.316,1.68,3.136,1.68H202.2c.728,0,.924-.252.924-1.54s-.2-1.512-.924-1.512h-.252c-.532,0-.672-.168-.672-.644V9.5c0-1.26-.42-1.652-2.016-1.652h-2.492c-1.176,0-1.512.5-1.512,1.876,0,.9.2,1.26.952,1.26h.532c.364,0,.532.084.532.532v3.948c0,2.268-1.12,3.3-3.3,3.3-1.932,0-2.6-.84-2.6-3.668V9.5c0-1.26-.42-1.652-2.016-1.652h-2.492Zm3.612-6.5c-1.092,0-1.82.42-1.82,2.016,0,1.568.336,1.988,1.456,1.988h1.288c1.12,0,1.456-.42,1.456-1.988,0-1.624-.728-2.016-1.82-2.016h-.56Zm7.532,0c-1.12,0-1.848.42-1.848,2.016,0,1.568.336,1.988,1.456,1.988h1.316c1.12,0,1.456-.42,1.456-1.988,0-1.624-.728-2.016-1.848-2.016H198Zm8.624,6.5c-1.176,0-1.512.5-1.512,1.876,0,.9.2,1.26.952,1.26h.532c.364,0,.532.084.532.532v6.916h-1.092c-.756,0-.924.308-.924,1.568s.168,1.568.924,1.568H212.7c.756,0,.924-.308.924-1.568s-.168-1.568-.924-1.568h-1.568V15.3c0-3.024,1.092-4.34,3.192-4.34a5.971,5.971,0,0,1,1.484.224c.784.2,1.232-.056,1.6-1.316.392-1.4.252-1.764-.364-1.988a5.826,5.826,0,0,0-2.072-.364c-2.212,0-3.64.98-4.144,2.744h-.476l-.084-1.064c-.084-1.064-.588-1.344-1.764-1.344H206.62Zm13.832-6.44c-1.176,0-1.512.5-1.512,1.876,0,.9.2,1.26.952,1.26h.532c.364,0,.532.084.532.532V18.432h-1.092c-.756,0-.924.308-.924,1.568s.168,1.568.924,1.568h5.8c.756,0,.924-.308.924-1.568s-.168-1.568-.924-1.568h-.7V15.968h2.576l2.716,4.284A2.706,2.706,0,0,0,233,21.708h1.82c.756,0,.924-.308.924-1.568s-.168-1.568-.924-1.568h-.952l-3.024-4.508,2.268-3.08h1.008c.756,0,.924-.308.924-1.568s-.168-1.568-.924-1.568H228.46c-.756,0-.924.308-.924,1.568s.168,1.568.924,1.568h.56l-1.6,2.184H224.96V3.06c0-1.26-.42-1.652-2.016-1.652h-2.492Zm18.536,6.44c-1.176,0-1.512.5-1.512,1.876,0,.9.2,1.26.952,1.26h.532c.364,0,.532.084.532.532v6.916H238.4c-.756,0-.924.308-.924,1.568s.168,1.568.924,1.568h6.356c.756,0,.924-.308.924-1.568s-.168-1.568-.924-1.568H243.5V9.5c0-1.26-.42-1.652-2.016-1.652ZM240.92.9c-1.26,0-2.128.476-2.128,2.3,0,1.792.392,2.3,1.68,2.3h1.484c1.26,0,1.652-.5,1.652-2.3,0-1.848-.868-2.3-2.128-2.3h-.56Zm6.692,6.944c-.756,0-.924.308-.924,1.568s.168,1.568.924,1.568h.588l4.088,9.548c.448,1.036.924,1.2,2.184,1.2l-.42,1.148c-.588,1.624-1.316,2.128-2.912,2.128a9.108,9.108,0,0,1-2.688-.42c-.616-.2-1.092-.028-1.484,1.176-.336,1.092-.252,1.54.392,1.792a11.381,11.381,0,0,0,3.78.616c3.78,0,5.32-1.232,6.692-4.928l4.592-12.264h.588c.756,0,.924-.308.924-1.568s-.168-1.568-.924-1.568h-5.544c-.756,0-.924.308-.924,1.568s.168,1.568.924,1.568h1.26l-2.156,5.46a11.913,11.913,0,0,0-.616,2.436h-.476a7.965,7.965,0,0,0-.56-2.1l-2.576-5.8h1.2c.756,0,.924-.308.924-1.568s-.168-1.568-.924-1.568h-5.936Zm17.724,7.2v-.728c0-4.452,2.856-6.8,7.392-6.8,4.76,0,6.72,2.212,6.72,6.384v.532c0,1.148-.56,1.456-2.072,1.456h-7.952c.056,2.044,1.316,2.912,4.34,2.912a15.24,15.24,0,0,0,3.612-.42c.812-.2,1.12-.14,1.484,1.12.336,1.232.224,1.512-.56,1.764a17.074,17.074,0,0,1-4.928.644c-5.46,0-8.036-2.212-8.036-6.86Zm4.088-1.792h6.216c0-1.82-.924-2.772-3-2.772C270.544,10.48,269.424,11.32,269.424,13.252Z" fill="#9c9c9c"/>
    <path id="Path_3" data-name="Path 3" d="M.344,11.88C.344,18.656,3.816,21.9,11.208,21.9a23.516,23.516,0,0,0,5.964-.728c.728-.2.868-.476.532-1.932-.308-1.344-.644-1.484-1.456-1.316A21.259,21.259,0,0,1,11.8,18.4c-5.152,0-7.168-2.016-7.168-6.832v-.588c0-4.116,1.484-6.552,5.908-6.552a14.32,14.32,0,0,1,3.528.448V6.84c0,.9.476,1.064,2.072,1.064,1.652,0,2.016-.168,2.016-1.092V4.348c0-1.456-.42-1.988-2.016-2.52a17.587,17.587,0,0,0-5.264-.756C3.7,1.072.344,4.768.344,10.956ZM27.168,4.544V11.1a17.619,17.619,0,0,0,3.556.28c3.08,0,4.256-1.064,4.256-3.388v-.14c0-2.156-1.54-3.3-5.516-3.3h-2.3ZM21.9,1.408h7.952c6.356,0,9.408,2.156,9.408,6.216v.56c0,4.508-3.164,6.356-8.092,6.356a6.874,6.874,0,0,1-3.472-.9h-.532v4.788h2.1c.784,0,.924.28.924,1.568s-.14,1.568-.924,1.568H21.82c-.728,0-.924-.28-.924-1.568s.2-1.568.924-1.568h1.2V4.544H21.9c-.728,0-.924-.28-.924-1.568s.2-1.568.924-1.568ZM47.44,4.544V11.1a17.619,17.619,0,0,0,3.556.28c3.08,0,4.256-1.064,4.256-3.388v-.14c0-2.156-1.54-3.3-5.516-3.3h-2.3ZM42.176,1.408h7.952c6.356,0,9.408,2.156,9.408,6.216v.56c0,4.508-3.164,6.356-8.092,6.356a6.874,6.874,0,0,1-3.472-.9H47.44v4.788h2.1c.784,0,.924.28.924,1.568s-.14,1.568-.924,1.568H42.092c-.728,0-.924-.28-.924-1.568s.2-1.568.924-1.568h1.2V4.544h-1.12c-.728,0-.924-.28-.924-1.568s.2-1.568.924-1.568ZM67.208,12.1c0,6.244,3.472,9.8,9.968,9.8a7.324,7.324,0,0,0,4.956-1.428h.5c.14,1.008.644,1.2,1.932,1.2,1.456,0,1.876-.224,1.876-1.036V11.908c0-1.176-.308-1.484-1.708-1.484h-6.72c-.868,0-1.036.336-1.036,1.6,0,1.316.168,1.6,1.036,1.6h4.34v4.4a16.555,16.555,0,0,1-4.088.476c-4.984,0-6.776-2.072-6.776-6.748v-.5c0-4,1.736-6.832,6.608-6.832a17.762,17.762,0,0,1,4.088.476V6.224c0,.9.448,1.064,2.044,1.064,1.68,0,2.044-.168,2.044-1.092V4.376c0-1.288-.42-1.932-2.24-2.52a19.952,19.952,0,0,0-5.628-.784c-7.672,0-11.2,3.92-11.2,10.136v.9ZM91.232,7.848c-1.176,0-1.512.5-1.512,1.876,0,.9.2,1.26.952,1.26H91.2c.364,0,.532.084.532.532v6.916H90.644c-.756,0-.924.308-.924,1.568s.168,1.568.924,1.568h6.664c.756,0,.924-.308.924-1.568s-.168-1.568-.924-1.568H95.74V15.3c0-3.024,1.092-4.34,3.192-4.34a5.971,5.971,0,0,1,1.484.224c.784.2,1.232-.056,1.6-1.316.392-1.4.252-1.764-.364-1.988a5.826,5.826,0,0,0-2.072-.364c-2.212,0-3.64.98-4.144,2.744h-.476l-.084-1.064c-.084-1.064-.588-1.344-1.764-1.344H91.232Zm16.576,6.72v.308c0,2.548.98,3.976,3.416,3.976s3.416-1.428,3.416-3.976v-.308c0-2.548-.98-4-3.416-4s-3.416,1.456-3.416,4Zm-4.088.5V14.4c0-4.536,2.744-6.888,7.5-6.888s7.5,2.352,7.5,6.888v.672c0,4.536-2.744,6.832-7.5,6.832S103.72,19.608,103.72,15.072ZM121.7,7.848c-1.176,0-1.512.5-1.512,1.876,0,.9.2,1.26.952,1.26h.532c.364,0,.532.084.532.532V15.66c0,3.752,1.456,6.244,5.712,6.244,2.38,0,3.724-.7,4.312-2.016h.5c.42,1.232,1.316,1.68,3.136,1.68h1.176c.728,0,.924-.252.924-1.54s-.2-1.512-.924-1.512h-.252c-.532,0-.672-.168-.672-.644V9.5c0-1.26-.42-1.652-2.016-1.652h-2.492c-1.176,0-1.512.5-1.512,1.876,0,.9.2,1.26.952,1.26h.532c.364,0,.532.084.532.532v3.948c0,2.268-1.12,3.3-3.3,3.3-1.932,0-2.6-.84-2.6-3.668V9.5c0-1.26-.42-1.652-2.016-1.652H121.7Zm24.192,6.076V15.8c0,1.988,1.26,2.94,3.3,2.94,2.24,0,3.416-1.54,3.416-3.892v-.224c0-2.492-1.092-4.032-3.444-4.032a3.046,3.046,0,0,0-3.276,3.332ZM141.52,7.848H143.4c1.26,0,1.624.336,1.764,1.344l.084.616h.5c.616-1.372,2.128-2.3,4.452-2.3,4.116,0,6.5,3.024,6.5,6.888v.644c0,4-2.24,6.86-6.608,6.86-1.96,0-3.136-.588-3.92-1.764h-.5a11.727,11.727,0,0,1,.364,3.136V24.7h2.044c.756,0,.924.308.924,1.568s-.168,1.568-.924,1.568h-7.14c-.756,0-.924-.308-.924-1.568s.168-1.568.924-1.568h1.092V11.516c0-.448-.168-.532-.532-.532h-.532c-.756,0-.952-.364-.952-1.26,0-1.372.336-1.876,1.512-1.876Z" fill="#9c9c9c"/>
  </g>
</svg>
