<svg xmlns="http://www.w3.org/2000/svg" width="280" height="29" viewBox="0 0 280 29">
    <g fill="none" fill-rule="nonzero">
        <path fill="#C30078" d="M165.936 1.408c-1.512 0-1.876.336-1.876 1.624v2.996c0 .924.504 1.12 1.932 1.12 1.512 0 1.932-.196 1.932-1.12V4.6h4.228v13.832h-2.156c-.728 0-.924.28-.924 1.568s.196 1.568.924 1.568h8.484c.784 0 .924-.28.924-1.568s-.14-1.568-.924-1.568h-2.184V4.6h4.228v1.428c0 .924.42 1.12 1.932 1.12 1.456 0 1.932-.196 1.932-1.12V3.032c0-1.288-.336-1.624-1.848-1.624h-16.604zm20.916 6.44c-1.176 0-1.512.504-1.512 1.876 0 .896.196 1.26.952 1.26h.532c.364 0 .532.084.532.532v4.144c0 3.752 1.456 6.244 5.712 6.244 2.38 0 3.724-.7 4.312-2.016h.504c.42 1.232 1.316 1.68 3.136 1.68h1.176c.728 0 .924-.252.924-1.54s-.196-1.512-.924-1.512h-.252c-.532 0-.672-.168-.672-.644V9.5c0-1.26-.42-1.652-2.016-1.652h-2.492c-1.176 0-1.512.504-1.512 1.876 0 .896.196 1.26.952 1.26h.532c.364 0 .532.084.532.532v3.948c0 2.268-1.12 3.304-3.304 3.304-1.932 0-2.604-.84-2.604-3.668V9.5c0-1.26-.42-1.652-2.016-1.652h-2.492zm3.612-6.496c-1.092 0-1.82.42-1.82 2.016 0 1.568.336 1.988 1.456 1.988h1.288c1.12 0 1.456-.42 1.456-1.988 0-1.624-.728-2.016-1.82-2.016h-.56zm7.532 0c-1.12 0-1.848.42-1.848 2.016 0 1.568.336 1.988 1.456 1.988h1.316c1.12 0 1.456-.42 1.456-1.988 0-1.624-.728-2.016-1.848-2.016h-.532zm8.624 6.496c-1.176 0-1.512.504-1.512 1.876 0 .896.196 1.26.952 1.26h.532c.364 0 .532.084.532.532v6.916h-1.092c-.756 0-.924.308-.924 1.568s.168 1.568.924 1.568h6.664c.756 0 .924-.308.924-1.568s-.168-1.568-.924-1.568h-1.568v-3.136c0-3.024 1.092-4.34 3.192-4.34.42 0 .98.084 1.484.224.784.196 1.232-.056 1.596-1.316.392-1.4.252-1.764-.364-1.988a5.826 5.826 0 0 0-2.072-.364c-2.212 0-3.64.98-4.144 2.744h-.476l-.084-1.064c-.084-1.064-.588-1.344-1.764-1.344h-1.876zm13.832-6.44c-1.176 0-1.512.504-1.512 1.876 0 .896.196 1.26.952 1.26h.532c.364 0 .532.084.532.532v13.356h-1.092c-.756 0-.924.308-.924 1.568s.168 1.568.924 1.568h5.796c.756 0 .924-.308.924-1.568s-.168-1.568-.924-1.568h-.7v-2.464h2.576l2.716 4.284c.672 1.092 1.344 1.456 2.744 1.456h1.82c.756 0 .924-.308.924-1.568s-.168-1.568-.924-1.568h-.952l-3.024-4.508 2.268-3.08h1.008c.756 0 .924-.308.924-1.568s-.168-1.568-.924-1.568h-5.656c-.756 0-.924.308-.924 1.568s.168 1.568.924 1.568h.56l-1.596 2.184h-2.464V3.06c0-1.26-.42-1.652-2.016-1.652h-2.492zm18.536 6.44c-1.176 0-1.512.504-1.512 1.876 0 .896.196 1.26.952 1.26h.532c.364 0 .532.084.532.532v6.916H238.4c-.756 0-.924.308-.924 1.568s.168 1.568.924 1.568h6.356c.756 0 .924-.308.924-1.568s-.168-1.568-.924-1.568h-1.26V9.5c0-1.26-.42-1.652-2.016-1.652h-2.492zM240.92.904c-1.26 0-2.128.476-2.128 2.296 0 1.792.392 2.296 1.68 2.296h1.484c1.26 0 1.652-.504 1.652-2.296 0-1.848-.868-2.296-2.128-2.296h-.56zm6.692 6.944c-.756 0-.924.308-.924 1.568s.168 1.568.924 1.568h.588l4.088 9.548c.448 1.036.924 1.204 2.184 1.204l-.42 1.148c-.588 1.624-1.316 2.128-2.912 2.128-.84 0-1.82-.14-2.688-.42-.616-.196-1.092-.028-1.484 1.176-.336 1.092-.252 1.54.392 1.792 1.008.392 2.492.616 3.78.616 3.78 0 5.32-1.232 6.692-4.928l4.592-12.264h.588c.756 0 .924-.308.924-1.568s-.168-1.568-.924-1.568h-5.544c-.756 0-.924.308-.924 1.568s.168 1.568.924 1.568h1.26l-2.156 5.46a11.911 11.911 0 0 0-.616 2.436h-.476a7.965 7.965 0 0 0-.56-2.1l-2.576-5.796h1.204c.756 0 .924-.308.924-1.568s-.168-1.568-.924-1.568h-5.936zm17.724 7.196v-.728c0-4.452 2.856-6.804 7.392-6.804 4.76 0 6.72 2.212 6.72 6.384v.532c0 1.148-.56 1.456-2.072 1.456h-7.952c.056 2.044 1.316 2.912 4.34 2.912a15.24 15.24 0 0 0 3.612-.42c.812-.196 1.12-.14 1.484 1.12.336 1.232.224 1.512-.56 1.764-1.456.448-3.164.644-4.928.644-5.46 0-8.036-2.212-8.036-6.86zm4.088-1.792h6.216c0-1.82-.924-2.772-2.996-2.772-2.1 0-3.22.84-3.22 2.772z"/>
        <path fill="#6E006E" d="M.344 11.88c0 6.776 3.472 10.024 10.864 10.024 2.156 0 4.144-.252 5.964-.728.728-.196.868-.476.532-1.932-.308-1.344-.644-1.484-1.456-1.316-1.428.308-2.94.476-4.452.476-5.152 0-7.168-2.016-7.168-6.832v-.588c0-4.116 1.484-6.552 5.908-6.552 1.232 0 2.436.168 3.528.448v1.96c0 .896.476 1.064 2.072 1.064 1.652 0 2.016-.168 2.016-1.092V4.348c0-1.456-.42-1.988-2.016-2.52-1.568-.504-3.416-.756-5.264-.756C3.704 1.072.344 4.768.344 10.956v.924zm26.824-7.336v6.552c1.148.224 2.184.28 3.556.28 3.08 0 4.256-1.064 4.256-3.388v-.14c0-2.156-1.54-3.304-5.516-3.304h-2.296zm-5.264-3.136h7.952c6.356 0 9.408 2.156 9.408 6.216v.56c0 4.508-3.164 6.356-8.092 6.356-1.344 0-2.492-.336-3.472-.896h-.532v4.788h2.1c.784 0 .924.28.924 1.568s-.14 1.568-.924 1.568H21.82c-.728 0-.924-.28-.924-1.568s.196-1.568.924-1.568h1.204V4.544h-1.12c-.728 0-.924-.28-.924-1.568s.196-1.568.924-1.568zM47.44 4.544v6.552c1.148.224 2.184.28 3.556.28 3.08 0 4.256-1.064 4.256-3.388v-.14c0-2.156-1.54-3.304-5.516-3.304H47.44zm-5.264-3.136h7.952c6.356 0 9.408 2.156 9.408 6.216v.56c0 4.508-3.164 6.356-8.092 6.356-1.344 0-2.492-.336-3.472-.896h-.532v4.788h2.1c.784 0 .924.28.924 1.568s-.14 1.568-.924 1.568h-7.448c-.728 0-.924-.28-.924-1.568s.196-1.568.924-1.568h1.204V4.544h-1.12c-.728 0-.924-.28-.924-1.568s.196-1.568.924-1.568zm25.032 10.696c0 6.244 3.472 9.8 9.968 9.8 2.212 0 3.892-.476 4.956-1.428h.504c.14 1.008.644 1.204 1.932 1.204 1.456 0 1.876-.224 1.876-1.036v-8.736c0-1.176-.308-1.484-1.708-1.484h-6.72c-.868 0-1.036.336-1.036 1.596 0 1.316.168 1.596 1.036 1.596h4.34v4.396c-1.176.308-2.604.476-4.088.476-4.984 0-6.776-2.072-6.776-6.748v-.504c0-4.004 1.736-6.832 6.608-6.832 1.372 0 2.828.168 4.088.476v1.344c0 .896.448 1.064 2.044 1.064 1.68 0 2.044-.168 2.044-1.092v-1.82c0-1.288-.42-1.932-2.24-2.52-1.652-.504-3.668-.784-5.628-.784-7.672 0-11.2 3.92-11.2 10.136v.896zm24.024-4.256c-1.176 0-1.512.504-1.512 1.876 0 .896.196 1.26.952 1.26h.532c.364 0 .532.084.532.532v6.916h-1.092c-.756 0-.924.308-.924 1.568s.168 1.568.924 1.568h6.664c.756 0 .924-.308.924-1.568s-.168-1.568-.924-1.568H95.74v-3.136c0-3.024 1.092-4.34 3.192-4.34.42 0 .98.084 1.484.224.784.196 1.232-.056 1.596-1.316.392-1.4.252-1.764-.364-1.988a5.826 5.826 0 0 0-2.072-.364c-2.212 0-3.64.98-4.144 2.744h-.476l-.084-1.064c-.084-1.064-.588-1.344-1.764-1.344h-1.876zm16.576 6.72v.308c0 2.548.98 3.976 3.416 3.976s3.416-1.428 3.416-3.976v-.308c0-2.548-.98-4.004-3.416-4.004s-3.416 1.456-3.416 4.004zm-4.088.504V14.4c0-4.536 2.744-6.888 7.504-6.888s7.504 2.352 7.504 6.888v.672c0 4.536-2.744 6.832-7.504 6.832s-7.504-2.296-7.504-6.832zm17.976-7.224c-1.176 0-1.512.504-1.512 1.876 0 .896.196 1.26.952 1.26h.532c.364 0 .532.084.532.532v4.144c0 3.752 1.456 6.244 5.712 6.244 2.38 0 3.724-.7 4.312-2.016h.504c.42 1.232 1.316 1.68 3.136 1.68h1.176c.728 0 .924-.252.924-1.54s-.196-1.512-.924-1.512h-.252c-.532 0-.672-.168-.672-.644V9.5c0-1.26-.42-1.652-2.016-1.652h-2.492c-1.176 0-1.512.504-1.512 1.876 0 .896.196 1.26.952 1.26h.532c.364 0 .532.084.532.532v3.948c0 2.268-1.12 3.304-3.304 3.304-1.932 0-2.604-.84-2.604-3.668V9.5c0-1.26-.42-1.652-2.016-1.652h-2.492zm24.192 6.076V15.8c0 1.988 1.26 2.94 3.304 2.94 2.24 0 3.416-1.54 3.416-3.892v-.224c0-2.492-1.092-4.032-3.444-4.032-2.044 0-3.276 1.26-3.276 3.332zm-4.368-6.076h1.876c1.26 0 1.624.336 1.764 1.344l.084.616h.504c.616-1.372 2.128-2.296 4.452-2.296 4.116 0 6.496 3.024 6.496 6.888v.644c0 4.004-2.24 6.86-6.608 6.86-1.96 0-3.136-.588-3.92-1.764h-.504c.28 1.036.364 2.044.364 3.136v1.428h2.044c.756 0 .924.308.924 1.568s-.168 1.568-.924 1.568h-7.14c-.756 0-.924-.308-.924-1.568s.168-1.568.924-1.568h1.092V11.516c0-.448-.168-.532-.532-.532h-.532c-.756 0-.952-.364-.952-1.26 0-1.372.336-1.876 1.512-1.876z"/>
    </g>
</svg>
