<svg id="menuicon-8" xmlns="http://www.w3.org/2000/svg" width="17.408" height="30.72" viewBox="0 0 17.408 30.72">
  <path id="Path_13" data-name="Path 13" d="M8.069,27.136a.389.389,0,0,0-.389.389v.247a.389.389,0,0,0,.389.388h1.27a.388.388,0,0,0,.389-.388v-.247a.389.389,0,0,0-.389-.389H8.07Zm1.27,2.048H8.07a1.414,1.414,0,0,1-1.413-1.412v-.247A1.414,1.414,0,0,1,8.07,26.112H9.34a1.414,1.414,0,0,1,1.413,1.413v.247A1.414,1.414,0,0,1,9.34,29.184Z" fill="#82b331" fill-rule="evenodd"/>
  <path id="Path_14" data-name="Path 14" d="M1.85,1.024a.828.828,0,0,0-.826.827V28.87a.827.827,0,0,0,.827.826H15.558a.828.828,0,0,0,.826-.827V1.851a.828.828,0,0,0-.827-.827H1.851Zm13.708,29.7H1.851A1.852,1.852,0,0,1,0,28.87V1.85A1.852,1.852,0,0,1,1.85,0H15.558a1.852,1.852,0,0,1,1.85,1.85V28.87a1.852,1.852,0,0,1-1.85,1.85Z" fill="#82b331" fill-rule="evenodd"/>
  <path id="Path_15" data-name="Path 15" d="M1.024,24.576h15.36V4.1H1.024ZM16.9,25.6H.512A.512.512,0,0,1,0,25.088V3.584a.512.512,0,0,1,.512-.512H16.9a.512.512,0,0,1,.512.512v21.5a.512.512,0,0,1-.512.512Z" fill="#82b331" fill-rule="evenodd"/>
</svg>
