<svg id="menuicon-1" xmlns="http://www.w3.org/2000/svg" width="27.085" height="27.085" viewBox="0 0 27.085 27.085">
  <path id="Path_1" data-name="Path 1" d="M13.542,25.907A12.365,12.365,0,1,1,25.907,13.542,12.378,12.378,0,0,1,13.542,25.907ZM13.542,0A13.542,13.542,0,1,0,27.085,13.542,13.557,13.557,0,0,0,13.542,0Z" fill="#82b331" fill-rule="evenodd"/>
  <path id="Path_2" data-name="Path 2" d="M19.43,14.131h2.908c-.009.14-.009.283-.025.422l-.01.092a8.835,8.835,0,0,1-.173.943l-.03.132a8.584,8.584,0,0,1-.28.89c-.017.048-.034.1-.053.144a8.817,8.817,0,0,1-.383.847l-.033.063H5.734L5.7,17.6a8.665,8.665,0,0,1-.437-.99,8.867,8.867,0,0,1-.278-.892c-.011-.043-.02-.088-.03-.132a8.95,8.95,0,0,1-.175-.943l-.008-.091c-.016-.14-.017-.281-.026-.422H7.654a.589.589,0,0,0,0-1.178H4.74A8.784,8.784,0,0,1,6.9,7.737L8.963,9.8a.589.589,0,1,0,.832-.833L7.736,6.9a8.78,8.78,0,0,1,5.218-2.163V7.654a.589.589,0,0,0,1.177,0V4.74A8.783,8.783,0,0,1,19.349,6.9l-5.05,5.05a1.746,1.746,0,0,0-.757-.178,1.766,1.766,0,1,0,1.767,1.766,1.744,1.744,0,0,0-.177-.756l5.05-5.05a8.784,8.784,0,0,1,2.162,5.218H19.43a.589.589,0,0,0,0,1.177Zm1.154,4.74a8.67,8.67,0,0,1-.581.687l-.112.119c-.2.21-.42.412-.644.6l-.12.1a8.759,8.759,0,0,1-.723.535l-.078.048a8.778,8.778,0,0,1-.778.448c-.022.01-.042.023-.064.034a8.931,8.931,0,0,1-.833.36c-.047.018-.093.036-.14.052a8.761,8.761,0,0,1-1,.293c-.29.067-.586.121-.884.159l-.126.012a8.163,8.163,0,0,1-1.909,0l-.126-.012a8.711,8.711,0,0,1-.884-.159l-.158-.037a8.7,8.7,0,0,1-.846-.256l-.14-.053a8.973,8.973,0,0,1-.832-.36c-.023-.01-.043-.023-.066-.034a8.874,8.874,0,0,1-.775-.446l-.08-.05a8.954,8.954,0,0,1-.722-.534l-.121-.1a8.743,8.743,0,0,1-.644-.6l-.11-.118a8.7,8.7,0,0,1-.583-.688l-.021-.029H20.606l-.022.03ZM20.62,6.464c-.007-.007-.018-.01-.026-.017a9.988,9.988,0,0,0-14.1,0c-.008.006-.017.008-.025.015s-.009.017-.015.025a10.007,10.007,0,1,0,14.189,0c-.007-.008-.01-.018-.018-.027Z" fill="#82b331" fill-rule="evenodd"/>
</svg>
