<svg xmlns="http://www.w3.org/2000/svg" width="28.877" height="19.32" viewBox="0 0 28.877 19.32">
  <g id="menuicon-4" transform="translate(-0.25 -0.272)">
    <path id="Path_5" data-name="Path 5" d="M26.857.272H2.523A2.274,2.274,0,0,0,.25,2.542V17.321a2.274,2.274,0,0,0,2.272,2.271H26.856a2.274,2.274,0,0,0,2.271-2.271V2.543A2.274,2.274,0,0,0,26.857.272ZM2.523,1.4H26.857A1.144,1.144,0,0,1,28,2.543V15.719H11.383a.564.564,0,0,0,0,1.128H28v.474a1.145,1.145,0,0,1-1.143,1.143H2.523a1.145,1.145,0,0,1-1.144-1.143v-.474H6.423a.564.564,0,1,0,0-1.128H1.379V2.543A1.145,1.145,0,0,1,2.523,1.4Z" fill="#82b331" fill-rule="evenodd"/>
    <path id="Path_6" data-name="Path 6" d="M16.047,4.943h3.045a.564.564,0,0,0,0-1.128H16.047a.564.564,0,1,0,0,1.128Zm5.5,0h3.13a.564.564,0,0,0,0-1.128h-3.13a.564.564,0,0,0,0,1.128Zm-5.5,2.412h8.629a.564.564,0,0,0,0-1.128H16.047a.564.564,0,1,0,0,1.128Zm0,2.474h2.594a.564.564,0,1,0,0-1.128H16.047a.564.564,0,1,0,0,1.128ZM24.095,8.7h-2.2a1.368,1.368,0,0,0-1.365,1.366v2.123a1.367,1.367,0,0,0,1.365,1.365h2.2a1.367,1.367,0,0,0,1.365-1.365V10.066A1.367,1.367,0,0,0,24.095,8.7Zm.237,3.489a.238.238,0,0,1-.237.237h-2.2a.237.237,0,0,1-.237-.237V10.066a.238.238,0,0,1,.237-.237h2.2a.238.238,0,0,1,.237.237Zm-8.285.128h2.594a.564.564,0,1,0,0-1.128H16.047a.564.564,0,1,0,0,1.128ZM4.711,13.49h7.952a.564.564,0,0,0,.564-.564V4.21a.564.564,0,0,0-.564-.564H4.711a.564.564,0,0,0-.564.564v8.716A.565.565,0,0,0,4.711,13.49ZM12.1,12.362H5.275v-1.62l.005-.02A2.029,2.029,0,0,1,7.249,9.246h2.877a2.028,2.028,0,0,1,1.968,1.476l.005.02v1.62ZM7.486,6.917a1.2,1.2,0,0,1,2.4,0,1.2,1.2,0,0,1-2.4,0ZM12.1,8.8a3.19,3.19,0,0,0-1.445-.637,2.3,2.3,0,0,0,.362-1.245A2.332,2.332,0,0,0,9.6,4.775h2.5V8.8ZM7.776,4.774A2.326,2.326,0,0,0,6.72,8.162,3.19,3.19,0,0,0,5.275,8.8V4.774h2.5Zm1.48,11.041a.563.563,0,1,0,.213.671.568.568,0,0,0-.213-.671Z" fill="#82b331" fill-rule="evenodd"/>
  </g>
</svg>
