<svg xmlns="http://www.w3.org/2000/svg" width="28.877" height="19.32" viewBox="0 0 28.877 19.32">
  <g id="menuicon-6" transform="translate(-0.25 -0.272)">
    <path id="Path_9" data-name="Path 9" d="M26.857.272H2.523A2.274,2.274,0,0,0,.25,2.542V17.321a2.274,2.274,0,0,0,2.272,2.271H26.856a2.274,2.274,0,0,0,2.271-2.271V2.543A2.274,2.274,0,0,0,26.857.272ZM2.523,1.4H26.857A1.144,1.144,0,0,1,28,2.543V15.719H11.383a.564.564,0,0,0,0,1.128H28v.474a1.145,1.145,0,0,1-1.143,1.143H2.523a1.145,1.145,0,0,1-1.144-1.143v-.474H6.423a.564.564,0,1,0,0-1.128H1.379V2.543A1.145,1.145,0,0,1,2.523,1.4Z" fill="#82b331" fill-rule="evenodd"/>
    <path id="Path_10" data-name="Path 10" d="M9.88,12c.28,0,.33-.1.33-.56s-.05-.56-.33-.56H8.65V5.32c0-.37-.18-.52-.71-.52H7.41a1.612,1.612,0,0,0-1.21.35L4.81,6.39c-.18.16-.14.39.16.72.33.35.57.41.73.25L7.12,6.02H7.3a5.656,5.656,0,0,0-.14,1.26v3.6H5.67c-.26,0-.33.1-.33.56s.07.56.33.56Zm6.88,0c.3,0,.35-.14.35-.61,0-.49-.05-.6-.35-.6h-3.5v-.15a4.214,4.214,0,0,0,1.43-.74l1.1-.91a2.716,2.716,0,0,0,1.24-2.11V6.77c0-1.41-.94-2.09-2.77-2.09a6.617,6.617,0,0,0-1.97.26.841.841,0,0,0-.65.94v.78c0,.32.12.38.7.38.55,0,.71-.06.71-.37V5.96a3.649,3.649,0,0,1,.97-.13c1.18,0,1.54.36,1.54,1.01v.07c0,.44-.18.77-.87,1.3l-2.71,2.1a.914.914,0,0,0-.41.79v.49c0,.33.12.41.63.41h4.56Zm4.25.12c2.19,0,3.12-.73,3.12-2.11V9.92a1.561,1.561,0,0,0-1.39-1.63V8.14A1.341,1.341,0,0,0,23.9,6.63V6.56c0-1.16-.82-1.88-2.76-1.88a7.626,7.626,0,0,0-1.8.2.865.865,0,0,0-.72.93v.5c0,.32.13.38.7.38.54,0,.69-.06.69-.37V5.85a7.614,7.614,0,0,1,.96-.06c.99,0,1.43.29,1.43.89v.05c0,.65-.3,1.04-1.46,1.04h-.56c-.29,0-.34.08-.34.53,0,.43.05.52.34.52h.67c1.24,0,1.57.41,1.57,1.06v.06c0,.71-.46,1.04-1.5,1.04a6.192,6.192,0,0,1-1.23-.1v-.6c0-.32-.17-.38-.72-.38-.58,0-.72.06-.72.39v.7a.893.893,0,0,0,.82.97,7.807,7.807,0,0,0,1.74.16Z" fill="#82b331"/>
  </g>
</svg>
