<svg xmlns="http://www.w3.org/2000/svg" width="27" height="23" viewBox="0 0 27 23">
  <path id="menuicon-2" d="M25.488,10h-.642V6.172a2.85,2.85,0,0,0-2.857-2.836H21.4L21.4,1.913A1.921,1.921,0,0,0,19.475,0H2.342A2.335,2.335,0,0,0,0,2.292v18.8A1.921,1.921,0,0,0,1.927,23H22a2.851,2.851,0,0,0,2.857-2.836V16.328h.642A1.5,1.5,0,0,0,27,14.833V11.5A1.51,1.51,0,0,0,25.488,10ZM2.342,1.32H19.475a.6.6,0,0,1,.6.588l0,1.429H2.342a1.009,1.009,0,1,1,0-2.018ZM23.517,20.16a1.525,1.525,0,0,1-1.528,1.516H1.922a.6.6,0,0,1-.6-.593V4.424a2.355,2.355,0,0,0,1.02.231H21.989a1.525,1.525,0,0,1,1.528,1.517V10H18.982A1.5,1.5,0,0,0,17.476,11.5v3.336a1.5,1.5,0,0,0,1.506,1.5h4.535v3.83Zm2.149-5.326a.174.174,0,0,1-.178.176h-6.5a.174.174,0,0,1-.177-.176V11.5a.178.178,0,0,1,.177-.176h6.5a.178.178,0,0,1,.178.176Z" fill="#82b331" fill-rule="evenodd"/>
</svg>
