<svg id="menuicon-5" xmlns="http://www.w3.org/2000/svg" width="28.512" height="19.008" viewBox="0 0 28.512 19.008">
  <path id="Path_7" data-name="Path 7" d="M27.562,16.632a1.427,1.427,0,0,1-1.426,1.426H2.376A1.426,1.426,0,0,1,.95,16.632V2.376A1.427,1.427,0,0,1,2.376.95h23.76a1.427,1.427,0,0,1,1.426,1.426ZM26.136,0H2.376A2.379,2.379,0,0,0,0,2.376V16.632a2.379,2.379,0,0,0,2.376,2.376h23.76a2.379,2.379,0,0,0,2.376-2.376V2.376A2.379,2.379,0,0,0,26.136,0Z" fill="#82b331" fill-rule="evenodd"/>
  <path id="Path_8" data-name="Path 8" d="M26.543,2.131a.475.475,0,0,0-.652-.162L15.478,8.216a2.369,2.369,0,0,1-2.444,0L2.62,1.97a.475.475,0,0,0-.49.814L12.544,9.032a3.32,3.32,0,0,0,3.422,0L26.38,2.783a.475.475,0,0,0,.162-.652M2.376,3.8a.475.475,0,0,0-.475.475V16.632a.475.475,0,1,0,.95,0V4.277A.475.475,0,0,0,2.376,3.8m23.76,0a.475.475,0,0,0-.475.475V16.632a.475.475,0,0,0,.95,0V4.277a.475.475,0,0,0-.475-.475" fill="#82b331" fill-rule="evenodd"/>
</svg>
