<svg xmlns="http://www.w3.org/2000/svg" width="29.031" height="19.354" viewBox="0 0 29.031 19.354">
  <g id="menuicon-3" transform="translate(-0.254 -0.056)">
    <g id="Group_1" data-name="Group 1">
      <path id="Path_3" data-name="Path 3" d="M26.26.056H3.279A3.028,3.028,0,0,0,.254,3.08V16.386A3.028,3.028,0,0,0,3.278,19.41H26.261a3.028,3.028,0,0,0,3.024-3.024V3.08A3.028,3.028,0,0,0,26.26.056Zm1.815,16.33A1.816,1.816,0,0,1,26.261,18.2H3.278a1.816,1.816,0,0,1-1.814-1.814V3.08A1.816,1.816,0,0,1,3.278,1.266H26.261A1.816,1.816,0,0,1,28.075,3.08V16.386Z" fill="#82b331" fill-rule="evenodd"/>
    </g>
    <path id="Path_4" data-name="Path 4" d="M28.68,3.685H.86a.6.6,0,0,0-.606.605V7.918a.605.605,0,0,0,.605.605h27.82a.6.6,0,0,0,.606-.605V4.29A.6.6,0,0,0,28.68,3.685ZM1.464,7.314H28.075V4.894H1.464Zm10.281,4.838H4.488a.605.605,0,0,0,0,1.21h7.257a.605.605,0,0,0,0-1.21Zm0,2.419H4.488a.605.605,0,1,0,0,1.21h7.257a.6.6,0,0,0,0-1.21Zm12.1-3.629h-1.21a1.817,1.817,0,0,0-1.814,1.815v1.21a1.817,1.817,0,0,0,1.815,1.814h1.21a1.817,1.817,0,0,0,1.814-1.815v-1.21a1.817,1.817,0,0,0-1.815-1.814Zm.6,3.024a.6.6,0,0,1-.6.605h-1.21a.605.605,0,0,1-.6-.6v-1.21a.6.6,0,0,1,.6-.6h1.21a.6.6,0,0,1,.6.605v1.21Z" fill="#82b331" fill-rule="evenodd"/>
  </g>
</svg>
