<svg xmlns="http://www.w3.org/2000/svg" xmlns:xlink="http://www.w3.org/1999/xlink" width="119" height="87" viewBox="0 0 119 87">
    <defs>
        <path id="a" d="M.01 0H83.52v86.39H.01z"/>
    </defs>
    <g fill="none" fill-rule="evenodd">
        <g transform="translate(35)">
            <mask id="b" fill="#fff">
                <use xlink:href="#a"/>
            </mask>
            <path fill="#6E006D" d="M83.376 11.365a1.443 1.443 0 0 0-.82-.738L52.687.082A1.44 1.44 0 0 0 50.85.96l-6.785 19.2h-2.968v-4.896a4.32 4.32 0 0 0-5.423-4.176l-34.6 9.12v.026A1.42 1.42 0 0 0 0 21.6v60.48a4.32 4.32 0 0 0 4.32 4.32h40.32a4.32 4.32 0 0 0 4.32-4.32V69.014l11.549 4.077a1.44 1.44 0 0 0 1.837-.88l21.092-59.746c.126-.36.104-.757-.062-1.1zm-46.968 2.5a1.442 1.442 0 0 1 1.808 1.394v4.901H12.544l23.864-6.294zM46.08 82.08a1.44 1.44 0 0 1-1.44 1.44H4.32a1.44 1.44 0 0 1-1.44-1.44V23.04h41.76c.795 0 1.44.645 1.44 1.44v57.6zm11.837-53.558l1.843-.874.878 1.838-6.997 19.8c-.126.36-.105.757.06 1.101l1.499 3.136-.464 1.315-2.856-2.957a1.44 1.44 0 0 0-1.214-.433l-1.706.216v-1.93l1.228-.587c.345-.164.61-.46.738-.82l2.88-8.143 4.111-11.662zm2.716 9.612l2.923 4.698-.5 1.415-3.498-3.063 1.075-3.05zm-11.673 7.11v-3.958l1.417-.059-1.417 4.016zm2.448-6.941l-2.448.1v-1.916l3.525-1.23-1.077 3.046zm8.7 31.592L48.96 65.959V54.567l1.35-.168 3.978 4.116a1.439 1.439 0 0 0 1.342.398 1.439 1.439 0 0 0 1.051-.927l1.44-4.074c.127-.36.106-.756-.06-1.1l-1.505-3.132 1.97-5.58 4.23 3.708a1.44 1.44 0 0 0 2.308-.603l1.44-4.074a1.439 1.439 0 0 0-.136-1.24l-4.507-7.24 1.687-4.78a1.44 1.44 0 0 0-.059-1.101l-1.756-3.673a1.44 1.44 0 0 0-1.921-.679l-3.675 1.757c-.344.165-.61.46-.736.82l-1.69 4.784-4.751 1.658V24.48a4.307 4.307 0 0 0-2.065-3.668l2.881-8.17 3.313-9.36 27.157 9.586-20.137 57.027z" mask="url(#b)"/>
        </g>
        <path fill="#6E006D" d="M106.47 21.985l.958-2.717 2.47.872-.959 2.716zM86.719 15.012l.96-2.716 2.468.872-.96 2.716zM101.532 20.242l.959-2.717 2.469.872-.96 2.716zM91.657 16.755l.96-2.715 2.467.872-.959 2.715zM96.594 18.497l.96-2.715 2.468.872-.959 2.715zM47.296 72h23.04v-2.88h-23.04zM50.176 77.76h17.28v-2.88h-17.28zM57.376 66.24h2.88v-2.88h-2.88zM51.616 66.24h2.88v-2.88h-2.88zM63.136 66.24h2.88v-2.88h-2.88z"/>
        <g>
            <path fill="#FFF" stroke="#6E006D" stroke-width="2" d="M43.971 31.435a3.638 3.638 0 0 1 3.634 3.634v23.644a3.638 3.638 0 0 1-3.634 3.634H5.036a3.638 3.638 0 0 1-3.634-3.634V35.07a3.638 3.638 0 0 1 3.634-3.634z"/>
            <path fill="#6E006D" d="M26.675 38.909h4.872a.902.902 0 1 0 0-1.805h-4.872a.903.903 0 0 0 0 1.805zM35.473 38.909h5.008a.902.902 0 1 0 0-1.805h-5.008a.902.902 0 0 0 0 1.805zM26.675 42.768h13.806a.902.902 0 1 0 0-1.805H26.675a.903.903 0 0 0 0 1.805zM26.675 46.726h4.15a.902.902 0 1 0 0-1.805h-4.15a.903.903 0 0 0 0 1.805zM39.551 44.92h-3.519c-1.204 0-2.184.98-2.184 2.185v3.397c0 1.204.98 2.184 2.184 2.184h3.52c1.204 0 2.184-.98 2.184-2.184v-3.397c0-1.204-.98-2.184-2.185-2.184zm.38 5.582c0 .21-.17.38-.38.38h-3.519a.38.38 0 0 1-.379-.38v-3.397c0-.209.17-.38.38-.38h3.518c.21 0 .38.171.38.38v3.397zM26.675 50.708h4.15a.903.903 0 0 0 0-1.805h-4.15a.903.903 0 0 0 0 1.805zM8.538 52.584H21.26a.902.902 0 0 0 .902-.903V37.735a.902.902 0 0 0-.902-.902H8.538a.903.903 0 0 0-.902.902v13.946c0 .498.404.903.902.903zm11.82-1.805H9.44v-2.592l.008-.031c.377-1.39 1.672-2.362 3.15-2.362H17.2c1.478 0 2.773.972 3.15 2.362l.007.03v2.593zm-7.38-8.712c0-1.06.861-1.921 1.921-1.921s1.922.862 1.922 1.921c0 1.06-.862 1.922-1.922 1.922a1.924 1.924 0 0 1-1.922-1.922zm7.38 3.012a5.103 5.103 0 0 0-2.311-1.02c.366-.576.579-1.26.579-1.992 0-1.537-.936-2.86-2.268-3.43h4v6.442zm-6.917-6.441a3.732 3.732 0 0 0-2.268 3.43c0 .732.213 1.415.58 1.991-.858.143-1.65.5-2.313 1.02v-6.441h4.001z"/>
        </g>
    </g>
</svg>
