<svg xmlns="http://www.w3.org/2000/svg" xmlns:xlink="http://www.w3.org/1999/xlink" width="114" height="99" viewBox="0 0 114 99">
  <defs>
    <clipPath id="clip-path">
      <path id="Path_28" data-name="Path 28" d="M0,0H114V99H0Z" transform="translate(4513 1381)" fill="#fff"/>
    </clipPath>
  </defs>
  <g id="Group_10" data-name="Group 10" transform="translate(-4513 -1381)">
    <g id="Mask_Group_3" data-name="Mask Group 3" clip-path="url(#clip-path)">
      <g id="passport" transform="translate(4513.79 1390.864)">
        <g id="Group_5" data-name="Group 5" transform="translate(35 -0.001)">
          <path id="Path_18" data-name="Path 18" d="M75.006,10.349a1.3,1.3,0,0,0-.738-.672L47.4.075a1.291,1.291,0,0,0-1.653.8l-6.1,17.483h-2.67V13.9a3.95,3.95,0,0,0-1.515-3.116,3.85,3.85,0,0,0-3.364-.687L.966,18.4v.024A1.29,1.29,0,0,0,0,19.668V74.74a3.91,3.91,0,0,0,3.886,3.934H40.159a3.91,3.91,0,0,0,3.886-3.934v-11.9l10.39,3.712a1.291,1.291,0,0,0,1.653-.8l18.975-54.4a1.324,1.324,0,0,0-.056-1ZM32.753,12.625a1.285,1.285,0,0,1,1.121.23,1.319,1.319,0,0,1,.505,1.039v4.463H11.285l21.468-5.731Zm8.7,62.115a1.3,1.3,0,0,1-1.3,1.311H3.886a1.3,1.3,0,0,1-1.3-1.311V20.98H40.159a1.3,1.3,0,0,1,1.3,1.311V74.74ZM52.1,25.971l1.658-.8.79,1.674L48.256,44.879a1.331,1.331,0,0,0,.054,1l1.349,2.856-.417,1.2-2.569-2.693a1.286,1.286,0,0,0-1.092-.394l-1.535.2V45.287l1.1-.535a1.308,1.308,0,0,0,.664-.747L48.4,36.591l3.7-10.619Zm2.443,8.752L57.176,39l-.45,1.288L53.579,37.5ZM44.045,41.2v-3.6l1.275-.054L44.045,41.2Zm2.2-6.32-2.2.091V33.224l3.171-1.12-.969,2.774Zm7.827,28.767L44.045,60.061V49.687l1.214-.153,3.579,3.748a1.284,1.284,0,0,0,1.207.362,1.3,1.3,0,0,0,.945-.844l1.3-3.71a1.32,1.32,0,0,0-.054-1l-1.354-2.852,1.772-5.081,3.805,3.376a1.284,1.284,0,0,0,1.182.283,1.3,1.3,0,0,0,.894-.832l1.3-3.71a1.324,1.324,0,0,0-.122-1.129l-4.055-6.593L57.169,27.2a1.326,1.326,0,0,0-.053-1l-1.58-3.345a1.289,1.289,0,0,0-1.728-.618l-3.306,1.6a1.3,1.3,0,0,0-.662.747l-1.52,4.356-4.274,1.51V22.291a3.932,3.932,0,0,0-1.858-3.34l2.592-7.439,2.98-8.523L72.19,11.717,54.075,63.645Z" transform="translate(0 0.001)" fill="#6e006d" fill-rule="evenodd"/>
        </g>
        <path id="Path_19" data-name="Path 19" d="M106.47,20.841l.958-2.4,2.47.769-.959,2.4Zm-19.751-6.15.96-2.4,2.468.769-.96,2.4ZM101.532,19.3l.959-2.4,2.469.769-.96,2.4Zm-9.875-3.075.96-2.395,2.467.769L94.125,17Zm4.937,1.536.96-2.395,2.468.769-.959,2.395ZM47.3,64.954h23.04v-2.54H47.3Zm2.88,5.08h17.28v-2.54H50.176Zm7.2-10.16h2.88v-2.54h-2.88Zm-5.76,0H54.5v-2.54h-2.88Zm11.52,0h2.88v-2.54h-2.88Z" transform="translate(-8.384)" fill="#6e006d" fill-rule="evenodd"/>
        <g id="Group_6" data-name="Group 6" transform="translate(1.402 27.058)">
          <path id="Path_20" data-name="Path 20" d="M43.971,31.435A3.638,3.638,0,0,1,47.6,35.069V58.713a3.638,3.638,0,0,1-3.634,3.634H5.036A3.638,3.638,0,0,1,1.4,58.713V35.07a3.638,3.638,0,0,1,3.634-3.634Z" transform="translate(-1.402 -31.435)" fill="#fff" stroke="#6e006d" stroke-width="2" fill-rule="evenodd"/>
          <path id="Path_21" data-name="Path 21" d="M26.675,38.909h4.872a.9.9,0,0,0,0-1.805H26.675a.9.9,0,0,0,0,1.805Zm8.8,0h5.008a.9.9,0,0,0,0-1.805H35.473a.9.9,0,1,0,0,1.8Zm-8.8,3.859H40.481a.9.9,0,0,0,0-1.805H26.675a.9.9,0,0,0,0,1.805Zm0,3.958h4.15a.9.9,0,0,0,0-1.805h-4.15a.9.9,0,0,0,0,1.805ZM39.551,44.92H36.032A2.187,2.187,0,0,0,33.848,47.1v3.4a2.187,2.187,0,0,0,2.184,2.184h3.52A2.187,2.187,0,0,0,41.736,50.5V47.1a2.187,2.187,0,0,0-2.185-2.184Zm.38,5.582a.38.38,0,0,1-.38.38H36.032a.38.38,0,0,1-.379-.38V47.1a.38.38,0,0,1,.38-.38h3.518a.38.38,0,0,1,.38.38Zm-13.256.206h4.15a.9.9,0,0,0,0-1.805h-4.15a.9.9,0,0,0,0,1.805ZM8.538,52.584H21.26a.9.9,0,0,0,.9-.9V37.735a.9.9,0,0,0-.9-.9H8.538a.9.9,0,0,0-.9.9V51.681A.9.9,0,0,0,8.538,52.584Zm11.82-1.805H9.44V48.187l.008-.031a3.247,3.247,0,0,1,3.15-2.362h4.6a3.247,3.247,0,0,1,3.15,2.362l.007.03v2.593Zm-7.38-8.712A1.922,1.922,0,1,1,14.9,43.989a1.922,1.922,0,0,1-1.921-1.922Zm7.38,3.012a5.1,5.1,0,0,0-2.311-1.02,3.724,3.724,0,0,0-1.689-5.422h4Zm-6.917-6.441a3.732,3.732,0,0,0-2.268,3.43,3.693,3.693,0,0,0,.58,1.991,5.107,5.107,0,0,0-2.313,1.02V38.638Z" transform="translate(-1.402 -31.435)" fill="#6e006d" fill-rule="evenodd"/>
        </g>
      </g>
    </g>
  </g>
</svg>
