<svg xmlns="http://www.w3.org/2000/svg" xmlns:xlink="http://www.w3.org/1999/xlink" width="53" height="93" viewBox="0 0 53 93">
    <defs>
        <path id="a" d="M.01 0h52.214v92.16H.01z"/>
    </defs>
    <g fill="none" fill-rule="evenodd">
        <mask id="b" fill="#fff">
            <use xlink:href="#a"/>
        </mask>
        <path fill="#0096FF" d="M24.206 81.408c-.644 0-1.166.522-1.166 1.166v.742c0 .642.522 1.164 1.166 1.164h3.814c.642 0 1.164-.522 1.164-1.164v-.742c0-.644-.522-1.166-1.166-1.166h-3.812zm3.812 6.144h-3.814a4.242 4.242 0 0 1-4.236-4.236v-.742a4.243 4.243 0 0 1 4.238-4.238h3.814a4.243 4.243 0 0 1 4.236 4.238v.742a4.242 4.242 0 0 1-4.238 4.236z" mask="url(#b)"/>
        <path fill="#0096FF" d="M5.553 3.072a2.483 2.483 0 0 0-2.48 2.48V86.61a2.483 2.483 0 0 0 2.48 2.479h41.12a2.483 2.483 0 0 0 2.48-2.48V5.552a2.483 2.483 0 0 0-2.482-2.48H5.553zM46.67 92.16H5.553A5.56 5.56 0 0 1 0 86.607V5.553A5.56 5.56 0 0 1 5.553 0h41.12a5.56 5.56 0 0 1 5.55 5.553v81.056a5.56 5.56 0 0 1-5.552 5.551z" mask="url(#b)"/>
        <path fill="#0096FF" d="M3.072 73.728h46.08v-61.44H3.072v61.44zM50.688 76.8H1.536A1.537 1.537 0 0 1 0 75.264V10.752c0-.848.688-1.536 1.536-1.536h49.152c.848 0 1.536.688 1.536 1.536v64.512c0 .848-.688 1.536-1.536 1.536z" mask="url(#b)"/>
    </g>
</svg>
