<svg xmlns="http://www.w3.org/2000/svg" width="114" height="99" viewBox="0 0 114 99">
  <g id="Group_7" data-name="Group 7" transform="translate(-4069 -1381)">
    <path id="Path_25" data-name="Path 25" d="M0,0H114V99H0Z" transform="translate(4069 1381)" fill="none"/>
    <g id="phone" transform="translate(4100 1384)">
      <path id="Path_22" data-name="Path 22" d="M24.206,81.408a1.166,1.166,0,0,0-1.166,1.166v.742a1.166,1.166,0,0,0,1.166,1.164H28.02a1.165,1.165,0,0,0,1.164-1.164v-.742a1.166,1.166,0,0,0-1.166-1.166H24.206Zm3.812,6.144H24.2a4.242,4.242,0,0,1-4.236-4.236v-.742a4.243,4.243,0,0,1,4.238-4.238H28.02a4.243,4.243,0,0,1,4.236,4.238v.742a4.242,4.242,0,0,1-4.238,4.236Z" fill="#0096ff" fill-rule="evenodd"/>
      <path id="Path_23" data-name="Path 23" d="M5.553,3.072a2.483,2.483,0,0,0-2.48,2.48V86.61a2.483,2.483,0,0,0,2.48,2.479h41.12a2.483,2.483,0,0,0,2.48-2.48V5.552a2.483,2.483,0,0,0-2.482-2.48ZM46.67,92.16H5.553A5.56,5.56,0,0,1,0,86.607V5.553A5.56,5.56,0,0,1,5.553,0h41.12a5.56,5.56,0,0,1,5.55,5.553V86.609a5.56,5.56,0,0,1-5.552,5.551Z" fill="#0096ff" fill-rule="evenodd"/>
      <path id="Path_24" data-name="Path 24" d="M3.072,73.728h46.08V12.288H3.072ZM50.688,76.8H1.536A1.537,1.537,0,0,1,0,75.264V10.752A1.536,1.536,0,0,1,1.536,9.216H50.688a1.536,1.536,0,0,1,1.536,1.536V75.264A1.536,1.536,0,0,1,50.688,76.8Z" fill="#0096ff" fill-rule="evenodd"/>
    </g>
  </g>
</svg>
