<svg xmlns="http://www.w3.org/2000/svg" width="52" height="52" viewBox="0 0 52 52">
    <path fill="#FFF" fill-rule="evenodd" d="M44.34 8.064c-9.947-9.949-26.132-9.949-36.079-.002-9.948 9.948-9.948 26.132 0 36.08 9.947 9.947 26.132 9.947 36.077-.002 9.949-9.946 9.949-26.13.003-36.076zm-2.784 33.294c-8.41 8.413-22.1 8.415-30.512.002-8.415-8.412-8.413-22.103 0-30.516 8.413-8.41 22.099-8.413 30.514.002 8.411 8.41 8.411 22.102-.002 30.512zm-24.771-22.16a2.981 2.981 0 1 1 5.963-.001 2.981 2.981 0 0 1-5.963 0zm13.52 0a2.983 2.983 0 1 1 5.966.002 2.983 2.983 0 0 1-5.966-.002zm7.048 12.212c-1.848 4.273-6.175 7.035-11.024 7.035-4.954 0-9.307-2.774-11.092-7.07a1.442 1.442 0 1 1 2.665-1.106c1.337 3.214 4.643 5.292 8.427 5.292 3.699 0 6.986-2.08 8.378-5.295a1.442 1.442 0 0 1 2.646 1.144z"/>
</svg>
