<svg xmlns="http://www.w3.org/2000/svg" xmlns:xlink="http://www.w3.org/1999/xlink" width="260" height="259" viewBox="0 0 260 259">
    <defs>
        <circle id="b" cx="129.5" cy="129.5" r="110.5"/>
        <filter id="a" width="125.8%" height="125.8%" x="-12.9%" y="-12.9%" filterUnits="objectBoundingBox">
            <feOffset in="SourceAlpha" result="shadowOffsetOuter1"/>
            <feGaussianBlur in="shadowOffsetOuter1" result="shadowBlurOuter1" stdDeviation="9.5"/>
            <feColorMatrix in="shadowBlurOuter1" values="0 0 0 0 0 0 0 0 0 0 0 0 0 0 0 0 0 0 0.187773164 0"/>
        </filter>
    </defs>
    <g fill="none" fill-rule="evenodd">
        <circle cx="194.5" cy="59.5" r="45.5" fill="#0096FF"/>
        <use fill="#000" filter="url(#a)" xlink:href="#b"/>
        <use fill="#FFF" xlink:href="#b"/>
        <ellipse cx="240" cy="214.5" fill="#C30078" rx="20" ry="19.5"/>
        <ellipse cx="33" cy="32.5" fill="#FFC800" rx="14" ry="13.5"/>
        <path fill="#0096FF" d="M118.26 129.36H95.58a1.62 1.62 0 0 1-1.62-1.62v-12.96c0-.894.726-1.62 1.62-1.62h61.56c.894 0 1.62.726 1.62 1.62v9.72a1.62 1.62 0 0 1-3.24 0v-8.1H97.2v9.72h21.06a1.62 1.62 0 0 1 0 3.24z"/>
        <path d="M81.016 84h97.88v97.895h-97.88z"/>
        <path fill="#0096FF" d="M139.32 126.12a16.2 16.2 0 1 0 16.2 16.2c-.01-8.943-7.257-16.19-16.2-16.2zm0 29.16a12.96 12.96 0 1 1 12.96-12.96c-.008 7.154-5.806 12.952-12.96 12.96z"/>
        <path fill="#0096FF" d="M176.45 167.995l-4.73-4.73V88.86a4.86 4.86 0 0 0-4.86-4.86h-81A4.86 4.86 0 0 0 81 88.86v77.76a4.86 4.86 0 0 0 4.86 4.86h71.165l7.973 7.97a8.1 8.1 0 1 0 11.453-11.455zM84.24 88.86c0-.894.726-1.62 1.62-1.62h81c.894 0 1.62.726 1.62 1.62v14.58H84.24V88.86zm1.62 79.38a1.62 1.62 0 0 1-1.62-1.62v-59.94h84.24v53.345l-4.432-4.434a1.62 1.62 0 0 0-2.29 0l-1.146 1.146-3.387-3.386c5.639-9.127 3.545-21.03-4.867-27.686-8.412-6.656-20.477-5.954-28.062 1.63-7.585 7.586-8.287 19.65-1.63 28.063 6.656 8.412 18.558 10.506 27.685 4.867l3.386 3.387-1.146 1.143a1.62 1.62 0 0 0 0 2.291l1.194 1.194H85.86zm71.28-25.92a17.82 17.82 0 1 1-17.82-17.82c9.837.012 17.808 7.983 17.82 17.82zm-4.135 15.976a21.131 21.131 0 0 0 2.291-2.293l3.025 3.024-2.294 2.294-3.022-3.025zm21.154 18.863a4.976 4.976 0 0 1-6.87 0l-11.262-11.258 6.876-6.874 11.256 11.26a4.856 4.856 0 0 1 0 6.872z"/>
        <path fill="#0096FF" d="M113.4 137.46h-12.96a1.62 1.62 0 0 1 0-3.24h12.96a1.62 1.62 0 0 1 0 3.24zM113.4 143.94h-12.96a1.62 1.62 0 0 1 0-3.24h12.96a1.62 1.62 0 0 1 0 3.24zM113.4 150.42h-12.96a1.62 1.62 0 0 1 0-3.24h12.96a1.62 1.62 0 0 1 0 3.24z"/>
        <ellipse cx="240" cy="217.5" fill="#C30078" rx="20" ry="19.5"/>
        <ellipse cx="33" cy="35.5" fill="#FFC800" rx="14" ry="13.5"/>
    </g>
</svg>
